<svg id="Layer_1" data-name="Layer 1" xmlns="http://www.w3.org/2000/svg" xmlns:xlink="http://www.w3.org/1999/xlink" viewBox="0 0 595.74 482.72"><defs><style>.cls-1{fill:#201600;}.cls-2{fill:url(#linear-gradient);}.cls-3{fill:#377497;}.cls-4{fill:#442261;}.cls-5{fill:#ff2900;}.cls-6{fill:url(#linear-gradient-2);}.cls-7{fill:#ffc200;}.cls-8{fill:url(#linear-gradient-3);}</style><linearGradient id="linear-gradient" x1="297.87" y1="341.17" x2="297.87" y2="145.53" gradientUnits="userSpaceOnUse"><stop offset="0.12" stop-color="#ff2900"/><stop offset="0.15" stop-color="#ff3400"/><stop offset="0.37" stop-color="#ff7000"/><stop offset="0.55" stop-color="#ff9d00"/><stop offset="0.69" stop-color="#ffb800"/><stop offset="0.78" stop-color="#ffc200"/></linearGradient><linearGradient id="linear-gradient-2" x1="503.29" y1="232.43" x2="503.29" y2="198.79" gradientTransform="translate(120.82 -176.19) rotate(22.5)" gradientUnits="userSpaceOnUse"><stop offset="0" stop-color="#bc5b19"/><stop offset="0.07" stop-color="#cf7812"/><stop offset="0.15" stop-color="#e0930b"/><stop offset="0.24" stop-color="#eea806"/><stop offset="0.34" stop-color="#f8b703"/><stop offset="0.46" stop-color="#fdbf01"/><stop offset="0.64" stop-color="#ffc200"/></linearGradient><linearGradient id="linear-gradient-3" x1="92.46" y1="232.43" x2="92.46" y2="198.79" gradientTransform="translate(260.39 379.43) rotate(157.5)" xlink:href="#linear-gradient-2"/></defs><title>DAWN LOGO final</title><path class="cls-1" d="M412.82,187a161.39,161.39,0,0,0-229.89,0,163.9,163.9,0,0,0-47.58,116,166.08,166.08,0,0,0,1.94,25.35c.34,2.21.72,4.41,1.16,6.61.5,2.59,1.07,5.17,1.69,7.73a6.62,6.62,0,0,0,6.42,5H449.19a6.5,6.5,0,0,0,2.38-.45,6.6,6.6,0,0,0,4-4.58c.64-2.56,1.2-5.14,1.71-7.73q.65-3.3,1.15-6.61a167.36,167.36,0,0,0,1.93-25.35A163.91,163.91,0,0,0,412.82,187ZM164.16,241.16a148.13,148.13,0,0,1,32.7-46,3,3,0,1,1,4.13,4.28,142.19,142.19,0,0,0-31.42,44.23,144.21,144.21,0,0,0-12.79,57.26,3,3,0,1,1-5.94-.13A150.08,150.08,0,0,1,164.16,241.16Zm119.58-82.65a3,3,0,0,1-2.6,2.94A139.47,139.47,0,0,0,217,186.17a3,3,0,1,1-3.41-4.87,145.67,145.67,0,0,1,66.8-25.75,3,3,0,0,1,3.32,2.66C283.74,158.31,283.74,158.41,283.74,158.51Z"/><path class="cls-2" d="M297.87,145.53C211.76,145.53,142,216.06,142,303.06a159.22,159.22,0,0,0,2,25.35q.53,3.33,1.2,6.6.63,3.11,1.38,6.16H449.19q.75-3.06,1.38-6.16c.45-2.18.86-4.38,1.21-6.6a160.4,160.4,0,0,0,2-25.35C453.78,216.06,384,145.53,297.87,145.53ZM201,199.39a142.21,142.21,0,0,0-31.41,44.23,144.16,144.16,0,0,0-12.79,57.25,3,3,0,1,1-5.95-.12,150.31,150.31,0,0,1,13.33-59.6,148.2,148.2,0,0,1,32.7-46,3,3,0,0,1,4.25.13,3,3,0,0,1-.13,4.15Zm80.16-37.94A139.36,139.36,0,0,0,217,186.17a3,3,0,0,1-3.41-4.87,145.28,145.28,0,0,1,66.79-25.75,3,3,0,0,1,3.33,2.66c0,.1,0,.2,0,.3A3,3,0,0,1,281.14,161.45Z"/><path class="cls-1" d="M94.34,353.93a12.76,12.76,0,0,1,0-25.52H501.41a12.76,12.76,0,0,1,0,25.52Z"/><rect class="cls-3" x="88.18" y="335.01" width="419.38" height="12.31" rx="6.15"/><path class="cls-1" d="M207.91,445a12.76,12.76,0,1,1,0-25.52H387.84a12.76,12.76,0,1,1,0,25.52Z"/><rect class="cls-4" x="201.75" y="426.07" width="192.24" height="12.31" rx="6.15"/><path class="cls-1" d="M428.35,445a12.76,12.76,0,0,1,0-25.52h55.73a12.76,12.76,0,0,1,0,25.52Z"/><rect class="cls-4" x="422.19" y="426.07" width="68.04" height="12.31" rx="6.15"/><path class="cls-1" d="M111.66,445a12.76,12.76,0,1,1,0-25.52H167.4a12.76,12.76,0,0,1,0,25.52Z"/><rect class="cls-4" x="105.51" y="426.07" width="68.04" height="12.31" rx="6.15"/><path class="cls-1" d="M166.68,399.46a12.76,12.76,0,0,1,0-25.52H429.07a12.76,12.76,0,0,1,0,25.52Z"/><rect class="cls-3" x="160.52" y="380.54" width="274.7" height="12.31" rx="6.15"/><path class="cls-1" d="M468.4,399.46a12.76,12.76,0,0,1,0-25.52h55.73a12.76,12.76,0,0,1,0,25.52Z"/><rect class="cls-3" x="462.24" y="380.54" width="68.04" height="12.31" rx="6.15"/><path class="cls-1" d="M71.61,399.46a12.76,12.76,0,0,1,0-25.52h55.74a12.76,12.76,0,1,1,0,25.52Z"/><rect class="cls-4" x="65.46" y="380.54" width="68.04" height="12.31" rx="6.15"/><path class="cls-1" d="M47.67,313.46a12.76,12.76,0,0,1,0-25.52H103.4a12.76,12.76,0,1,1,0,25.52Z"/><rect class="cls-5" x="41.51" y="294.54" width="68.04" height="12.31" rx="6.15"/><path class="cls-1" d="M492.34,313.46a12.76,12.76,0,0,1,0-25.52h55.74a12.76,12.76,0,0,1,0,25.52Z"/><rect class="cls-5" x="486.19" y="294.54" width="68.04" height="12.31" rx="6.15"/><path class="cls-1" d="M482.42,238.07a12.76,12.76,0,0,1-9.76-23.58l51.49-21.33a12.76,12.76,0,1,1,9.76,23.58Z"/><rect class="cls-6" x="469.26" y="209.46" width="68.04" height="12.31" rx="6.15" transform="translate(-44.2 209.01) rotate(-22.5)"/><path class="cls-1" d="M444.41,172.21a12.76,12.76,0,1,1-18.05-18.05l39.41-39.41a12.76,12.76,0,0,1,18.05,18.05Z"/><rect class="cls-7" x="421.07" y="137.33" width="68.04" height="12.31" rx="6.15" transform="translate(31.84 363.82) rotate(-45)"/><path class="cls-1" d="M384.08,125.91a12.76,12.76,0,1,1-23.57-9.76l21.32-51.49a12.76,12.76,0,1,1,23.58,9.76Z"/><rect class="cls-7" x="348.94" y="89.13" width="68.04" height="12.31" rx="6.15" transform="translate(148.37 412.63) rotate(-67.5)"/><path class="cls-1" d="M310.63,106.23a12.76,12.76,0,1,1-25.52,0V50.49a12.76,12.76,0,0,1,25.52,0Z"/><rect class="cls-7" x="263.85" y="72.21" width="68.04" height="12.31" rx="6.15" transform="translate(219.51 376.23) rotate(-90)"/><path class="cls-1" d="M235.24,116.15a12.76,12.76,0,1,1-23.58,9.76L190.33,74.42a12.76,12.76,0,0,1,23.58-9.76Z"/><rect class="cls-7" x="178.77" y="89.13" width="68.04" height="12.31" rx="6.15" transform="translate(206.19 328.34) rotate(-112.5)"/><path class="cls-1" d="M169.38,154.16a12.76,12.76,0,1,1-18,18.05L111.93,132.8a12.76,12.76,0,0,1,18-18.05Z"/><rect class="cls-7" x="106.63" y="137.33" width="68.04" height="12.31" rx="6.15" transform="translate(138.66 344.4) rotate(-135)"/><path class="cls-1" d="M123.09,214.49a12.76,12.76,0,0,1-9.77,23.58L61.83,216.74a12.76,12.76,0,0,1,9.77-23.58Z"/><rect class="cls-8" x="58.44" y="209.46" width="68.04" height="12.31" rx="6.15" transform="translate(95.37 450.2) rotate(-157.5)"/></svg>